<svg width="232" height="58" viewBox="0 0 232 58" fill="none" xmlns="http://www.w3.org/2000/svg">
<g opacity="0.9">
<g clip-path="url(#clip0_517_8)">
<path d="M33.2591 20.1133H3.30988C2.94883 20.1133 2.60257 20.2567 2.34727 20.512C2.09197 20.7673 1.94855 21.1136 1.94855 21.4746V29.6426C1.95262 31.9602 2.44826 34.2506 3.40275 36.3626C4.35724 38.4746 5.74887 40.36 7.48575 41.8945H3.30988C2.94883 41.8945 2.60257 42.038 2.34727 42.2933C2.09197 42.5486 1.94855 42.8948 1.94855 43.2559C1.94855 43.6169 2.09197 43.9632 2.34727 44.2185C2.60257 44.4738 2.94883 44.6172 3.30988 44.6172H33.2591C33.6201 44.6172 33.9664 44.4738 34.2217 44.2185C34.477 43.9632 34.6204 43.6169 34.6204 43.2559C34.6204 42.8948 34.477 42.5486 34.2217 42.2933C33.9664 42.038 33.6201 41.8945 33.2591 41.8945H29.0832C31.1681 40.0467 32.7491 37.6992 33.6777 35.0726C35.4068 34.966 37.0302 34.2042 38.2171 32.9424C39.404 31.6805 40.0651 30.0136 40.0657 28.2812V26.9199C40.0657 25.1147 39.3486 23.3834 38.0721 22.1069C36.7956 20.8304 35.0643 20.1133 33.2591 20.1133ZM37.3431 28.2812C37.3425 29.162 37.0572 30.0189 36.5297 30.7243C36.0022 31.4296 35.2609 31.9455 34.4162 32.1951C34.5511 31.3509 34.6194 30.4974 34.6204 29.6426V23.0708C35.4165 23.3522 36.1057 23.8735 36.5933 24.5628C37.0809 25.2521 37.3428 26.0756 37.3431 26.9199V28.2812ZM16.9232 16.0293V10.584C16.9232 10.2229 17.0666 9.87668 17.3219 9.62138C17.5772 9.36608 17.9234 9.22266 18.2845 9.22266C18.6455 9.22266 18.9918 9.36608 19.2471 9.62138C19.5024 9.87668 19.6458 10.2229 19.6458 10.584V16.0293C19.6458 16.3903 19.5024 16.7366 19.2471 16.9919C18.9918 17.2472 18.6455 17.3906 18.2845 17.3906C17.9234 17.3906 17.5772 17.2472 17.3219 16.9919C17.0666 16.7366 16.9232 16.3903 16.9232 16.0293ZM22.3685 16.0293V10.584C22.3685 10.2229 22.5119 9.87668 22.7672 9.62138C23.0225 9.36608 23.3688 9.22266 23.7298 9.22266C24.0908 9.22266 24.4371 9.36608 24.6924 9.62138C24.9477 9.87668 25.0911 10.2229 25.0911 10.584V16.0293C25.0911 16.3903 24.9477 16.7366 24.6924 16.9919C24.4371 17.2472 24.0908 17.3906 23.7298 17.3906C23.3688 17.3906 23.0225 17.2472 22.7672 16.9919C22.5119 16.7366 22.3685 16.3903 22.3685 16.0293ZM11.4778 16.0293V10.584C11.4778 10.2229 11.6213 9.87668 11.8766 9.62138C12.1319 9.36608 12.4781 9.22266 12.8392 9.22266C13.2002 9.22266 13.5465 9.36608 13.8018 9.62138C14.0571 9.87668 14.2005 10.2229 14.2005 10.584V16.0293C14.2005 16.3903 14.0571 16.7366 13.8018 16.9919C13.5465 17.2472 13.2002 17.3906 12.8392 17.3906C12.4781 17.3906 12.1319 17.2472 11.8766 16.9919C11.6213 16.7366 11.4778 16.3903 11.4778 16.0293Z" fill="#8FB6FA"/>
</g>
<path d="M55.8697 41V15.62H66.8857C69.6697 15.62 71.8177 16.316 73.3297 17.708C74.8417 19.1 75.5977 21.044 75.5977 23.54C75.5977 26.036 74.8417 27.992 73.3297 29.408C71.8177 30.8 69.6697 31.496 66.8857 31.496H60.4777V41H55.8697ZM60.4777 27.86H66.1657C69.4777 27.86 71.1337 26.42 71.1337 23.54C71.1337 20.684 69.4777 19.256 66.1657 19.256H60.4777V27.86ZM90.5543 41.36C88.1063 41.36 85.9583 40.82 84.1103 39.74C82.2863 38.66 80.8703 37.148 79.8623 35.204C78.8543 33.236 78.3503 30.932 78.3503 28.292C78.3503 25.628 78.8543 23.324 79.8623 21.38C80.8703 19.436 82.2863 17.936 84.1103 16.88C85.9343 15.8 88.0823 15.26 90.5543 15.26C93.0263 15.26 95.1743 15.8 96.9983 16.88C98.8223 17.936 100.238 19.436 101.246 21.38C102.254 23.324 102.758 25.616 102.758 28.256C102.758 30.92 102.254 33.236 101.246 35.204C100.238 37.148 98.8223 38.66 96.9983 39.74C95.1743 40.82 93.0263 41.36 90.5543 41.36ZM90.5543 37.4C92.8823 37.4 94.6943 36.596 95.9903 34.988C97.2863 33.38 97.9343 31.148 97.9343 28.292C97.9343 25.412 97.2863 23.18 95.9903 21.596C94.7183 20.012 92.9063 19.22 90.5543 19.22C88.2263 19.22 86.4143 20.012 85.1183 21.596C83.8223 23.18 83.1743 25.412 83.1743 28.292C83.1743 31.148 83.8223 33.38 85.1183 34.988C86.4143 36.596 88.2263 37.4 90.5543 37.4ZM104.181 41L115.665 15.62H119.445L130.929 41H126.249L123.729 35.132H111.345L108.861 41H104.181ZM117.501 20.624L112.929 31.46H122.145L117.573 20.624H117.501ZM141.234 41.36C139.386 41.36 137.778 40.988 136.41 40.244C135.042 39.476 133.986 38.396 133.242 37.004C132.498 35.612 132.126 33.98 132.126 32.108C132.126 30.236 132.498 28.628 133.242 27.284C133.986 25.916 135.042 24.872 136.41 24.152C137.778 23.408 139.386 23.036 141.234 23.036C142.362 23.036 143.478 23.216 144.582 23.576C145.686 23.936 146.598 24.44 147.318 25.088L145.986 28.22C145.362 27.668 144.654 27.248 143.862 26.96C143.094 26.672 142.35 26.528 141.63 26.528C140.07 26.528 138.858 27.02 137.994 28.004C137.154 28.964 136.734 30.344 136.734 32.144C136.734 33.92 137.154 35.324 137.994 36.356C138.858 37.364 140.07 37.868 141.63 37.868C142.326 37.868 143.07 37.724 143.862 37.436C144.654 37.148 145.362 36.716 145.986 36.14L147.318 39.308C146.598 39.932 145.674 40.436 144.546 40.82C143.442 41.18 142.338 41.36 141.234 41.36ZM157.755 41.36C155.931 41.36 154.347 40.988 153.003 40.244C151.659 39.5 150.615 38.444 149.871 37.076C149.127 35.684 148.755 34.052 148.755 32.18C148.755 30.308 149.127 28.688 149.871 27.32C150.615 25.952 151.659 24.896 153.003 24.152C154.347 23.408 155.931 23.036 157.755 23.036C159.579 23.036 161.163 23.408 162.507 24.152C163.851 24.896 164.895 25.952 165.639 27.32C166.383 28.688 166.755 30.308 166.755 32.18C166.755 34.052 166.383 35.684 165.639 37.076C164.895 38.444 163.851 39.5 162.507 40.244C161.163 40.988 159.579 41.36 157.755 41.36ZM157.755 37.94C159.099 37.94 160.179 37.46 160.995 36.5C161.811 35.516 162.219 34.076 162.219 32.18C162.219 30.26 161.811 28.832 160.995 27.896C160.179 26.936 159.099 26.456 157.755 26.456C156.411 26.456 155.331 26.936 154.515 27.896C153.699 28.832 153.291 30.26 153.291 32.18C153.291 34.076 153.699 35.516 154.515 36.5C155.331 37.46 156.411 37.94 157.755 37.94ZM171.481 41V26.78H168.097V23.396H171.481V23.36C171.481 20.864 172.129 18.98 173.425 17.708C174.745 16.436 176.785 15.716 179.545 15.548L181.309 15.44L181.597 18.752L179.941 18.86C178.501 18.956 177.481 19.316 176.881 19.94C176.281 20.54 175.981 21.44 175.981 22.64V23.396H180.769V26.78H175.981V41H171.481ZM183.751 41V26.78H180.367V23.396H183.751V23.36C183.751 20.864 184.399 18.98 185.695 17.708C187.015 16.436 189.055 15.716 191.815 15.548L193.579 15.44L193.867 18.752L192.211 18.86C190.771 18.956 189.751 19.316 189.151 19.94C188.551 20.54 188.251 21.44 188.251 22.64V23.396H193.039V26.78H188.251V41H183.751ZM203.895 41.36C201.903 41.36 200.187 40.988 198.747 40.244C197.307 39.5 196.191 38.444 195.399 37.076C194.631 35.708 194.247 34.088 194.247 32.216C194.247 30.392 194.619 28.796 195.363 27.428C196.131 26.06 197.175 24.992 198.495 24.224C199.839 23.432 201.363 23.036 203.067 23.036C205.563 23.036 207.531 23.828 208.971 25.412C210.435 26.996 211.167 29.156 211.167 31.892V33.224H198.567C198.903 36.368 200.703 37.94 203.967 37.94C204.951 37.94 205.935 37.796 206.919 37.508C207.903 37.196 208.803 36.716 209.619 36.068L210.879 39.092C210.039 39.788 208.983 40.34 207.711 40.748C206.439 41.156 205.167 41.36 203.895 41.36ZM203.247 26.096C201.927 26.096 200.859 26.504 200.043 27.32C199.227 28.136 198.735 29.24 198.567 30.632H207.423C207.327 29.168 206.919 28.052 206.199 27.284C205.503 26.492 204.519 26.096 203.247 26.096ZM223.407 41.36C221.415 41.36 219.699 40.988 218.259 40.244C216.819 39.5 215.703 38.444 214.911 37.076C214.143 35.708 213.759 34.088 213.759 32.216C213.759 30.392 214.131 28.796 214.875 27.428C215.643 26.06 216.687 24.992 218.007 24.224C219.351 23.432 220.875 23.036 222.579 23.036C225.075 23.036 227.043 23.828 228.483 25.412C229.947 26.996 230.679 29.156 230.679 31.892V33.224H218.079C218.415 36.368 220.215 37.94 223.479 37.94C224.463 37.94 225.447 37.796 226.431 37.508C227.415 37.196 228.315 36.716 229.131 36.068L230.391 39.092C229.551 39.788 228.495 40.34 227.223 40.748C225.951 41.156 224.679 41.36 223.407 41.36ZM222.759 26.096C221.439 26.096 220.371 26.504 219.555 27.32C218.739 28.136 218.247 29.24 218.079 30.632H226.935C226.839 29.168 226.431 28.052 225.711 27.284C225.015 26.492 224.031 26.096 222.759 26.096Z" fill="#8FB6FA"/>
</g>
<defs>
<clipPath id="clip0_517_8">
<rect width="41" height="41" fill="white" transform="translate(0 8.5)"/>
</clipPath>
</defs>
</svg>
