<svg width="27" height="27" viewBox="0 0 27 27" fill="none" xmlns="http://www.w3.org/2000/svg">
<circle cx="13.5" cy="13.5" r="13.5" fill="#454444"/>
<path d="M10.9375 7.8125V5.5625C10.9375 5.41332 10.9968 5.27024 11.1023 5.16475C11.2077 5.05926 11.3508 5 11.5 5C11.6492 5 11.7923 5.05926 11.8977 5.16475C12.0032 5.27024 12.0625 5.41332 12.0625 5.5625V7.8125C12.0625 7.96168 12.0032 8.10476 11.8977 8.21025C11.7923 8.31574 11.6492 8.375 11.5 8.375C11.3508 8.375 11.2077 8.31574 11.1023 8.21025C10.9968 8.10476 10.9375 7.96168 10.9375 7.8125ZM13.75 8.375C13.8992 8.375 14.0423 8.31574 14.1477 8.21025C14.2532 8.10476 14.3125 7.96168 14.3125 7.8125V5.5625C14.3125 5.41332 14.2532 5.27024 14.1477 5.16475C14.0423 5.05926 13.8992 5 13.75 5C13.6008 5 13.4577 5.05926 13.3523 5.16475C13.2468 5.27024 13.1875 5.41332 13.1875 5.5625V7.8125C13.1875 7.96168 13.2468 8.10476 13.3523 8.21025C13.4577 8.31574 13.6008 8.375 13.75 8.375ZM16 8.375C16.1492 8.375 16.2923 8.31574 16.3977 8.21025C16.5032 8.10476 16.5625 7.96168 16.5625 7.8125V5.5625C16.5625 5.41332 16.5032 5.27024 16.3977 5.16475C16.2923 5.05926 16.1492 5 16 5C15.8508 5 15.7077 5.05926 15.6023 5.16475C15.4968 5.27024 15.4375 5.41332 15.4375 5.5625V7.8125C15.4375 7.96168 15.4968 8.10476 15.6023 8.21025C15.7077 8.31574 15.8508 8.375 16 8.375ZM22.75 12.3125V12.875C22.7498 13.5905 22.4769 14.2789 21.9869 14.8003C21.4969 15.3216 20.8267 15.6366 20.1126 15.6812C19.7289 16.7665 19.0756 17.7365 18.2141 18.5H19.9375C20.0867 18.5 20.2298 18.5593 20.3352 18.6648C20.4407 18.7702 20.5 18.9133 20.5 19.0625C20.5 19.2117 20.4407 19.3548 20.3352 19.4602C20.2298 19.5657 20.0867 19.625 19.9375 19.625H7.5625C7.41332 19.625 7.27024 19.5657 7.16475 19.4602C7.05926 19.3548 7 19.2117 7 19.0625C7 18.9133 7.05926 18.7702 7.16475 18.6648C7.27024 18.5593 7.41332 18.5 7.5625 18.5H9.28797C8.57029 17.8659 7.99527 17.0869 7.60088 16.2142C7.20648 15.3415 7.00168 14.3951 7 13.4375V10.0625C7 9.91332 7.05926 9.77024 7.16475 9.66475C7.27024 9.55926 7.41332 9.5 7.5625 9.5H19.9375C20.6834 9.5 21.3988 9.79632 21.9262 10.3238C22.4537 10.8512 22.75 11.5666 22.75 12.3125ZM19.375 10.625H8.125V13.4375C8.12717 14.4936 8.42564 15.528 8.98647 16.4229C9.5473 17.3179 10.348 18.0375 11.2975 18.5H16.2025C17.152 18.0375 17.9527 17.3179 18.5135 16.4229C19.0744 15.528 19.3728 14.4936 19.375 13.4375V10.625ZM21.625 12.3125C21.6249 11.9636 21.5167 11.6234 21.3152 11.3385C21.1137 11.0537 20.8289 10.8383 20.5 10.722V13.4375C20.4996 13.7907 20.4714 14.1434 20.4156 14.4922C20.7646 14.3891 21.071 14.1759 21.2889 13.8845C21.5069 13.593 21.6247 13.2389 21.625 12.875V12.3125Z" fill="#EDEDED"/>
</svg>
